PathFileType	4	(X/Y/Z)	s11c0101.trc
DataRate	CameraRate	NumFrames	NumMarkers	Units	OrigDataRate	OrigDataStartFrame	OrigNumFrames
200	200	6	48	mm	200	250	2000
Frame#	Time	racr			lacr			c7			jug			rlel			rdr			llel			ldr			s2			lic			ric			lasi			rasi			rpsi			lpsi			rgt			lgt			rth1			rth2			rth3			rth4			rlfc			rmfc			rsh1			rsh2			rsh3			rsh4			rlmal			rcal			rtoe			rmt5			lth1			lth2			lth4			lth3			llfc			lmfc			llmal			lcal			lmt5			lsh1			lsh2			lsh3			lsh4			ltoe			SBIKE			LBIKE			RBIKE			
		X1	Y1	Z1	X2	Y2	Z2	X3	Y3	Z3	X4	Y4	Z4	X5	Y5	Z5	X6	Y6	Z6	X7	Y7	Z7	X8	Y8	Z8	X9	Y9	Z9	X10	Y10	Z10	X11	Y11	Z11	X12	Y12	Z12	X13	Y13	Z13	X14	Y14	Z14	X15	Y15	Z15	X16	Y16	Z16	X17	Y17	Z17	X18	Y18	Z18	X19	Y19	Z19	X20	Y20	Z20	X21	Y21	Z21	X22	Y22	Z22	X23	Y23	Z23	X24	Y24	Z24	X25	Y25	Z25	X26	Y26	Z26	X27	Y27	Z27	X28	Y28	Z28	X29	Y29	Z29	X30	Y30	Z30	X31	Y31	Z31	X32	Y32	Z32	X33	Y33	Z33	X34	Y34	Z34	X35	Y35	Z35	X36	Y36	Z36	X37	Y37	Z37	X38	Y38	Z38	X39	Y39	Z39	X40	Y40	Z40	X41	Y41	Z41	X42	Y42	Z42	X43	Y43	Z43	X44	Y44	Z44	X45	Y45	Z45	X46	Y46	Z46	X47	Y47	Z47	X48	Y48	Z48	
250	1.2500	474.722604	1412.103057	-100.716288	463.845847	1436.010899	-434.136371	386.781671	1527.589482	-265.298783	444.090980	1358.729141	-273.599263	595.739694	1168.588335	-46.680468	786.365808	937.903177	-71.499419	558.217247	1152.892201	-507.286238	784.824960	929.769657	-475.017795	-121.969080	1209.600900	-244.674832	97.170754	1217.882765	-453.307765	107.633077	1212.626974	-60.659374	121.522827	1140.541223	-421.480968	129.375855	1145.205118	-93.291419	-72.671426	1279.095560	-194.371761	-80.015985	1272.683082	-292.182297	46.580665	1067.952861	-32.337828	6.186378	1089.547041	-463.517457	162.989883	981.197666	-29.594506	248.369438	957.579560	-38.898498	307.521138	894.601452	-52.917759	266.408021	988.415959	-49.564656	395.439213	825.899810	-70.621044	397.886276	813.059392	-203.023645	290.285944	710.100898	-64.323655	241.417275	639.638792	-86.338270	164.102216	599.277959	-88.641105	259.150391	626.730751	-119.455931	55.542194	527.045357	-102.823654	-10.452380	545.831325	-151.028699	208.616832	361.136608	-148.330005	137.069785	377.799042	-77.949731	119.856754	984.311036	-483.847181	195.986586	944.961590	-479.209596	221.223396	970.946399	-469.870583	243.542168	868.542868	-474.080695	341.513737	766.448945	-445.728141	356.354307	761.375730	-319.730022	256.110011	343.848881	-420.656176	204.585067	297.779617	-385.482542	406.874606	255.368075	-457.487782	307.318883	643.607425	-463.681350	319.074701	558.922753	-452.542492	286.668987	476.867360	-446.214313	351.392501	557.432472	-431.932523	502.254548	284.282622	-390.807873	-216.026009	960.047128	-256.164074	-17.835396	80.858788	-461.085006	-17.905400	80.805817	-62.060956	
251	1.2550	474.691558	1412.296408	-100.718763	463.878220	1436.085775	-434.055678	386.576083	1527.824582	-265.233072	444.056659	1359.016360	-273.535039	595.733235	1168.657580	-46.332750	786.457998	937.991261	-71.276120	558.383075	1153.158817	-507.417809	784.880468	929.812443	-475.203935	-121.981287	1209.577667	-244.652048	97.189216	1217.906405	-453.285256	107.655274	1212.600232	-60.627901	121.579214	1140.614267	-421.468012	129.389251	1145.178686	-93.275566	-72.698630	1279.051532	-194.326801	-80.059262	1272.671412	-292.135056	46.575837	1067.872976	-32.351733	6.191052	1089.568693	-463.470784	162.975992	981.177825	-29.595749	248.366780	957.561976	-38.899913	307.510740	894.589887	-52.926064	266.420058	988.394709	-49.584242	395.444089	825.894733	-70.640992	397.910572	813.026202	-203.037080	290.291315	710.086127	-64.340504	241.419559	639.610925	-86.364984	164.085605	599.271331	-88.651199	259.167401	626.725284	-119.465488	55.539692	527.037094	-102.829965	-10.450942	545.820584	-151.028415	208.604082	361.118357	-148.330612	137.104817	377.729161	-77.982390	119.851861	984.340948	-483.812019	195.997466	944.976833	-479.179928	221.232022	970.999520	-469.864996	243.532818	868.578618	-474.068489	341.496440	766.481072	-445.721883	356.374343	761.409800	-319.709724	256.190885	343.755102	-420.282852	204.586401	297.790706	-385.496321	406.975040	255.248299	-457.376246	307.321433	643.636587	-463.684739	319.088358	558.948765	-452.556353	286.668000	476.895890	-446.215382	351.393181	557.453179	-431.928014	502.276114	284.276636	-390.809273	-216.017083	960.044275	-256.176685	-17.808679	80.852382	-461.082282	-17.903850	80.811943	-62.069683	
252	1.2600	474.660453	1412.437215	-100.701995	463.882131	1436.152368	-433.969732	386.347220	1527.984706	-265.174410	444.060145	1359.261016	-273.493487	595.769348	1168.730841	-45.920935	786.631459	938.131117	-70.913673	558.452383	1153.378055	-507.587202	784.921358	929.850709	-475.374419	-122.060113	1209.514134	-244.599773	97.186016	1217.956495	-453.273940	107.688732	1212.567907	-60.621483	121.627582	1140.667115	-421.470378	129.406603	1145.154934	-93.261171	-72.763837	1279.010366	-194.267036	-80.099913	1272.658092	-292.104992	46.575322	1067.844542	-32.349429	6.164205	1089.585132	-463.448370	162.975192	981.169616	-29.604250	248.373271	957.539274	-38.916267	307.514388	894.557654	-52.944607	266.385760	988.392586	-49.580509	395.432719	825.853752	-70.665140	397.921009	813.033505	-203.059963	290.297272	710.046345	-64.371005	241.419629	639.581975	-86.387295	164.107540	599.243552	-88.687127	259.163445	626.702940	-119.500827	55.539507	527.020429	-102.847819	-10.441578	545.812064	-151.038336	208.602528	361.097859	-148.327892	137.059011	377.758809	-77.944294	119.844616	984.361713	-483.808217	195.977078	945.004974	-479.178932	221.219054	971.004903	-469.844619	243.519405	868.602625	-474.046053	341.495202	766.508172	-445.721654	356.386677	761.432008	-319.728921	256.216174	343.748392	-420.273379	204.605772	297.827566	-385.489384	407.004729	255.256584	-457.355098	307.325069	643.643144	-463.677431	319.085886	558.969585	-452.554186	286.679900	476.899204	-446.201811	351.388364	557.503255	-431.937492	502.302178	284.304005	-390.793784	-216.014728	960.054253	-256.168603	-17.877244	80.965817	-460.986631	-17.884638	80.824671	-62.079566	
253	1.2650	474.590890	1412.614191	-100.743149	463.844830	1436.250331	-433.918401	386.059114	1528.222491	-265.312165	444.032536	1359.457578	-273.451760	595.810351	1168.747030	-45.459196	786.800070	938.274983	-70.589791	558.459159	1153.527111	-507.754337	784.931591	929.845063	-475.484634	-122.082864	1209.484698	-244.570706	97.167808	1217.999886	-453.292272	107.670907	1212.529662	-60.597848	121.700150	1140.808816	-421.578325	129.425907	1145.098549	-93.258034	-72.768533	1278.946510	-194.236875	-80.173413	1272.652943	-292.043346	46.573076	1067.832499	-32.337822	6.137236	1089.613431	-463.454277	162.965157	981.132915	-29.609269	248.354419	957.520135	-38.925838	307.519498	894.541511	-52.969896	266.395165	988.362382	-49.578273	395.421152	825.830670	-70.685275	397.889229	813.025350	-203.104085	290.295134	710.061429	-64.385669	241.406903	639.563807	-86.398648	164.098974	599.235669	-88.672820	259.125813	626.712162	-119.516238	55.531877	527.014437	-102.850678	-10.466677	545.799983	-151.020413	208.588072	361.082142	-148.336440	137.060305	377.758144	-77.950959	119.820300	984.395325	-483.813521	195.956612	945.032376	-479.179793	221.192272	971.044742	-469.849384	243.507068	868.625245	-474.052644	341.470400	766.516828	-445.724618	356.400435	761.450484	-319.717009	256.226280	343.790516	-420.313050	204.599067	297.862980	-385.502671	406.990734	255.284714	-457.391115	307.314479	643.657621	-463.691152	319.080424	558.979604	-452.568716	286.687297	476.930703	-446.225906	351.395167	557.512015	-431.962549	502.284872	284.347700	-390.829443	-216.031900	960.048705	-256.149752	-17.820681	80.856420	-461.077457	-17.893616	80.798608	-62.054416	
254	1.2700	474.574549	1412.733815	-100.710710	463.831165	1436.374459	-433.855599	385.913640	1528.385949	-265.208896	444.074757	1359.667460	-273.371995	595.827190	1168.724247	-45.074068	786.952988	938.433079	-70.246813	558.403812	1153.631129	-507.886181	784.967542	929.831631	-475.587528	-122.133731	1209.460880	-244.506823	97.105740	1218.054157	-453.170748	107.663098	1212.505131	-60.596230	121.666769	1140.790952	-421.420446	129.438002	1145.068177	-93.217417	-72.817494	1278.922439	-194.175423	-80.233112	1272.636015	-291.998392	46.551934	1067.802193	-32.312941	6.107071	1089.650147	-463.427918	162.966837	981.108565	-29.608438	248.350928	957.495268	-38.916107	307.519250	894.531584	-52.980904	266.380245	988.346613	-49.584404	395.426799	825.805386	-70.706438	397.900024	813.032716	-203.126433	290.318841	710.035798	-64.401528	241.409629	639.579792	-86.400362	164.109354	599.212590	-88.691841	259.146065	626.693716	-119.519783	55.316851	526.779531	-102.930241	-10.455463	545.783465	-151.031101	208.579648	361.060365	-148.332924	137.055994	377.730016	-77.956801	119.813404	984.424264	-483.777325	195.946340	945.062216	-479.181579	221.198578	971.066345	-469.816646	243.493802	868.662175	-474.034751	341.468197	766.548303	-445.713124	356.408708	761.460795	-319.701082	256.168183	343.936710	-420.681651	204.612035	297.895509	-385.520252	406.868377	255.507275	-457.586834	307.305735	643.684009	-463.702396	319.086984	559.007572	-452.547802	286.682233	476.972105	-446.228806	351.399838	557.551002	-431.949598	502.287960	284.355847	-390.821355	-216.031282	960.065515	-256.159857	-17.884220	80.984692	-460.969669	-17.897758	80.811572	-62.062418	
255	1.2750	474.559342	1412.821290	-100.690489	463.798884	1436.504967	-433.783673	385.795902	1528.524666	-265.162426	444.117051	1359.866958	-273.328376	595.864786	1168.672695	-44.779693	787.117132	938.565286	-69.940586	558.307858	1153.666624	-507.995462	785.026215	929.827317	-475.700752	-122.129845	1209.446178	-244.487979	97.077782	1218.107086	-453.082656	107.680300	1212.481071	-60.565887	121.749330	1140.888095	-421.461331	129.472147	1145.061436	-93.225136	-72.870876	1278.908385	-194.112157	-80.265296	1272.620348	-291.942253	46.564256	1067.785384	-32.302898	6.110278	1089.682708	-463.402878	162.958503	981.086183	-29.603503	248.349617	957.467046	-38.939684	307.512850	894.504828	-52.987038	266.375880	988.336294	-49.602541	395.414738	825.806743	-70.736288	397.898007	813.021331	-203.118396	290.287067	710.038759	-64.409759	241.407438	639.548625	-86.394209	164.105201	599.222416	-88.675079	259.164551	626.685464	-119.506445	55.308706	526.783283	-102.939314	-10.475421	545.773353	-151.025693	208.578731	361.046566	-148.334363	137.050512	377.723874	-77.950563	119.813413	984.450851	-483.766975	195.947417	945.082397	-479.136552	221.186817	971.099575	-469.809126	243.499491	868.682014	-474.017100	341.453628	766.574033	-445.703719	356.363447	761.495742	-319.708386	256.193203	343.950112	-420.663350	204.624143	297.900084	-385.487115	406.883103	255.501414	-457.561894	307.313361	643.684056	-463.689490	319.102713	559.020745	-452.550798	286.704083	476.980527	-446.220556	351.423569	557.549481	-431.931373	502.308208	284.344278	-390.779764	-216.020089	960.064116	-256.158427	-17.819605	80.844267	-461.060201	-17.904384	80.808587	-62.060871	
